<?xml version="1.0" encoding="UTF-8"?>
<svg id="Calque_1" data-name="Calque 1" xmlns="http://www.w3.org/2000/svg" viewBox="0 0 283.46 174.78" width="283.46" height="174.78">
  <defs>
    <style>
      .cls-1 {
        fill: #46556C;
      }
    </style>
  </defs>
  <path class="cls-1" d="m70.69,21.79v.08c0,1.76-1.23,2.46-2.67,2.46-1.35,0-2.75-.57-4.51-1.6v5.21c1.44.7,3.12,1.19,5.09,1.19,3.94,0,7.1-3,7.1-7.51v-.08c0-3.28-.86-5.05-4.8-9.6-2.38-2.75-2.79-3.24-2.79-4.6v-.08c0-1.56,1.19-2.46,2.59-2.46,1.31,0,2.26.41,3.82,1.31V.9c-1.23-.62-2.42-.9-4.43-.9-3.98,0-6.98,2.91-6.98,7.51v.08c0,3.49,1.4,5.33,4.8,9.19,2.38,2.71,2.79,3.69,2.79,5.01Zm-19.84-9.03l5.67,16.17h4.24V.21h-4.69v15.28L50.64.21h-4.49v28.72h4.69V12.76ZM96.04.21h-5.01v28.72h5.01V.21Zm6.11,28.72h5.01V4.97h3.53V.21h-12.06v4.76h3.53v23.96Zm18.09.37c4.1,0,7.14-2.71,7.14-8.74V.21h-4.97v20.84c0,2.59-.9,3.61-2.17,3.61s-2.18-1.03-2.18-3.61V.21h-4.97v20.35c0,6.03,3.04,8.74,7.14,8.74Zm-40.33-.37h5.01V4.97h3.53V.21h-12.06v4.76h3.53v23.96ZM42.71.21h-5.01v28.72h5.01V.21Zm103.96,129.69h22.65V61.24h18.87l2.54-20.57h-21.4c.09-6.02,1.61-10.81,4.59-14.37,3.07-3.67,8.28-5.51,15.63-5.51h23L215.1.21h-29.75c-12.83,0-22.48,4.32-28.96,11.87-6.08,7.08-9.31,16.31-9.68,28.57h-3.58c-12.65-.03-22.26,3.08-28.83,9.61-6.58,6.54-11.64,15.99-15.18,28.35l-6.8,25.06-30.38-58.34h-23.03s45.62,87.04,45.62,87.04l-.43,1.57c-1.75,5.88-4.13,10.56-7.16,14.04-3.03,3.48-7.21,5.22-12.54,5.2l-15.23-.03-2.67,21.6,18.45.05c10.54.03,19.15-3.52,25.82-10.43,6.67-6.9,11.7-16.35,15.09-28.35l15.05-55.32c1.1-4.16,1.99-9.12,6.7-13.79,4.71-4.67,9.9-5.67,14.12-5.66h4.95v68.66Zm-13.33-100.97h5.01V4.97h3.53V.21h-12.06v4.76h3.53v23.96Zm60.26,55.24c0,14.06,4.87,25.67,12.78,34.88,7.91,9.21,20.49,13.64,32.47,13.64,20.88,0,37.17-9.72,41.34-13.87l-10.7-15.2c-12.12,7.88-21.48,9.04-29.51,9.04-3.27,0-12.01-.9-17.02-5.46-4.07-3.7-6.81-7.49-8.09-14.18h68.05c.37-4.02.56-7,.56-8.94,0-17.78-6.89-28.61-15.5-36.43-8.16-7.41-19.49-10.42-29.13-10.42-8.38,0-20.3,2.22-30,10.74-9.7,8.53-15.24,20.95-15.24,36.19Zm27.93-20.78c3.46-3.77,9.27-6.88,17.49-6.88s14.75,3.7,18.1,8.12c3.2,4.23,4.22,9.13,4.45,11.49h-45.98c.28-1.74,1.41-7.8,5.94-12.73ZM54.82,107.4h-30.77V.21H0v129.69h52.04l2.78-22.5Z"/>
</svg>